<svg width="77" height="76" viewBox="0 0 77 76" fill="none" xmlns="http://www.w3.org/2000/svg">
<ellipse cx="18" cy="25" rx="15" ry="19" fill="#0077FF"/>
<path d="M73 19C73 29.4934 66.2843 38 58 38C49.7157 38 43 29.4934 43 19C43 8.50659 49.7157 0 58 0C66.2843 0 73 8.50659 73 19Z" fill="#0077FF"/>
<path d="M0 62.5C0 52.2827 8.28273 44 18.5 44V44C28.7173 44 37 52.2827 37 62.5V74.1887C37 75.189 36.189 76 35.1887 76H1.81132C0.810956 76 0 75.189 0 74.1887V62.5Z" fill="#0077FF"/>
<path d="M40 56.5C40 46.2827 48.2827 38 58.5 38V38C68.7173 38 77 46.2827 77 56.5V73.8491C77 75.037 76.037 76 74.8491 76H42.1509C40.963 76 40 75.037 40 73.8491V56.5Z" fill="#0077FF"/>
</svg>
