<svg width="40" height="28" viewBox="0 0 40 28" fill="none" xmlns="http://www.w3.org/2000/svg">
<ellipse cx="20" cy="24" rx="13" ry="4" fill="#C5C4C4" fill-opacity="0.92"/>
<rect x="16" y="9" width="8" height="12" fill="#D9D9D9"/>
<ellipse cx="20" cy="6.5" rx="17" ry="4.5" fill="#D9D9D9"/>
<path d="M19.6262 25.5791C19.8251 25.8031 20.1749 25.8031 20.3738 25.5791L36.5815 7.33204C36.8679 7.00955 36.639 6.5 36.2076 6.5H3.79236C3.36103 6.5 3.13209 7.00955 3.41854 7.33204L19.6262 25.5791Z" fill="#D9D9D9"/>
<path d="M14.5755 9.96409L4.37116 7.15317C3.50617 6.91489 3.36835 5.74614 4.15419 5.3132L8.18527 3.09237C8.29605 3.03135 8.41739 2.99188 8.54287 2.97608L16.2941 2H23.7059L31.4571 2.97608C31.5826 2.99188 31.704 3.03135 31.8147 3.09237L35.8137 5.29551C36.6039 5.73086 36.459 6.9075 35.5868 7.13815L24.8904 9.96677C24.8069 9.98883 24.721 10 24.6347 10H14.8411C14.7514 10 14.662 9.98792 14.5755 9.96409Z" stroke="#0077FF" stroke-linecap="round"/>
<path d="M14.5 10L18.9588 22.9711C19.2776 23.8984 20.6017 23.8607 20.8672 22.9168L24.5 10" stroke="#0077FF" stroke-linecap="round"/>
<path d="M3.5 7L19.5 24" stroke="#0077FF" stroke-linecap="round"/>
<path d="M36 7L20 24" stroke="#0077FF" stroke-linecap="round"/>
</svg>
