<svg width="64" height="68" viewBox="0 0 64 68" fill="none" xmlns="http://www.w3.org/2000/svg">
<circle cx="32" cy="36" r="32" fill="white"/>
<path d="M14.3695 42V21.6364H22.4036C23.9415 21.6364 25.254 21.9115 26.3411 22.4616C27.4348 23.0052 28.2667 23.7775 28.8368 24.7784C29.4135 25.7727 29.7019 26.9427 29.7019 28.2884C29.7019 29.6406 29.4102 30.804 28.8269 31.7784C28.2435 32.7462 27.3984 33.4886 26.2914 34.0057C25.191 34.5227 23.8586 34.7812 22.2942 34.7812H16.915V31.321H21.5982C22.4202 31.321 23.1029 31.2083 23.6465 30.983C24.19 30.7576 24.5944 30.4195 24.8596 29.9688C25.1313 29.518 25.2672 28.9579 25.2672 28.2884C25.2672 27.6122 25.1313 27.0421 24.8596 26.5781C24.5944 26.1141 24.1867 25.7628 23.6365 25.5241C23.093 25.2789 22.4069 25.1562 21.5783 25.1562H18.6749V42H14.3695ZM25.3667 32.733L30.4277 42H25.6749L20.7232 32.733H25.3667ZM45.3226 21.6364H49.628V34.8608C49.628 36.3456 49.2734 37.6449 48.5641 38.7585C47.8614 39.8722 46.8771 40.7405 45.611 41.3636C44.3449 41.9801 42.87 42.2884 41.1863 42.2884C39.4959 42.2884 38.0177 41.9801 36.7516 41.3636C35.4855 40.7405 34.5011 39.8722 33.7985 38.7585C33.0958 37.6449 32.7445 36.3456 32.7445 34.8608V21.6364H37.0499V34.4929C37.0499 35.2685 37.2189 35.9579 37.557 36.5611C37.9017 37.1643 38.3856 37.6383 39.0087 37.983C39.6318 38.3277 40.3577 38.5 41.1863 38.5C42.0215 38.5 42.7473 38.3277 43.3638 37.983C43.9869 37.6383 44.4675 37.1643 44.8056 36.5611C45.1503 35.9579 45.3226 35.2685 45.3226 34.4929V21.6364Z" fill="black"/>
<path d="M24.2843 48.5455V49.6818H20.9995V48.5455H24.2843ZM21.7452 47.2386H23.258V52.3239C23.258 52.4635 23.2793 52.5724 23.3219 52.6506C23.3645 52.7263 23.4237 52.7796 23.4995 52.8104C23.5776 52.8411 23.6676 52.8565 23.7694 52.8565C23.8404 52.8565 23.9114 52.8506 23.9824 52.8388C24.0534 52.8246 24.1079 52.8139 24.1458 52.8068L24.3837 53.9325C24.3079 53.9562 24.2014 53.9834 24.0641 54.0142C23.9268 54.0473 23.7599 54.0675 23.5634 54.0746C23.1988 54.0888 22.8792 54.0402 22.6046 53.929C22.3323 53.8177 22.1204 53.6449 21.9689 53.4105C21.8174 53.1761 21.7428 52.8802 21.7452 52.5227V47.2386ZM28.7676 51.6776V48.5455H30.2804V54H28.8279V53.0092H28.7711C28.648 53.3288 28.4432 53.5857 28.1568 53.7798C27.8727 53.974 27.5259 54.071 27.1163 54.071C26.7517 54.071 26.4309 53.9882 26.1539 53.8224C25.877 53.6567 25.6603 53.4212 25.5041 53.1158C25.3502 52.8104 25.2721 52.4446 25.2697 52.0185V48.5455H26.7825V51.7486C26.7849 52.0705 26.8713 52.325 27.0417 52.5121C27.2122 52.6991 27.4406 52.7926 27.7271 52.7926C27.9094 52.7926 28.0798 52.7512 28.2385 52.6683C28.3971 52.5831 28.5249 52.4576 28.622 52.2919C28.7214 52.1262 28.7699 51.9214 28.7676 51.6776ZM31.5188 54V46.7273H33.0316V49.4616H33.0778C33.1441 49.3149 33.2399 49.1657 33.3654 49.0142C33.4933 48.8603 33.659 48.7325 33.8626 48.6307C34.0685 48.5265 34.3242 48.4744 34.6296 48.4744C35.0273 48.4744 35.3943 48.5786 35.7305 48.7869C36.0666 48.9929 36.3353 49.3042 36.5366 49.7209C36.7378 50.1352 36.8384 50.6548 36.8384 51.2798C36.8384 51.8883 36.7402 52.402 36.5437 52.821C36.3496 53.2377 36.0844 53.5537 35.7482 53.7692C35.4144 53.9822 35.0404 54.0888 34.6261 54.0888C34.3325 54.0888 34.0827 54.0402 33.8768 53.9432C33.6732 53.8461 33.5063 53.7242 33.3761 53.5774C33.2459 53.4283 33.1464 53.2779 33.0778 53.1264H33.0103V54H31.5188ZM32.9996 51.2727C32.9996 51.5971 33.0446 51.88 33.1346 52.1214C33.2246 52.3629 33.3548 52.5511 33.5252 52.6861C33.6957 52.8187 33.9028 52.8849 34.1467 52.8849C34.3929 52.8849 34.6012 52.8175 34.7717 52.6825C34.9421 52.5452 35.0711 52.3558 35.1587 52.1143C35.2487 51.8705 35.2937 51.59 35.2937 51.2727C35.2937 50.9579 35.2499 50.6809 35.1623 50.4418C35.0747 50.2027 34.9457 50.0156 34.7752 49.8807C34.6048 49.7457 34.3952 49.6783 34.1467 49.6783C33.9004 49.6783 33.6921 49.7434 33.5217 49.8736C33.3536 50.0038 33.2246 50.1884 33.1346 50.4276C33.0446 50.6667 32.9996 50.9484 32.9996 51.2727ZM40.3336 54.1065C39.7725 54.1065 39.2896 53.9929 38.8848 53.7656C38.4823 53.536 38.1722 53.2116 37.9544 52.7926C37.7366 52.3712 37.6277 51.8729 37.6277 51.2976C37.6277 50.7365 37.7366 50.2441 37.9544 49.8203C38.1722 49.3965 38.4788 49.0663 38.8741 48.8295C39.2718 48.5928 39.7382 48.4744 40.2733 48.4744C40.6331 48.4744 40.9681 48.5324 41.2782 48.6484C41.5907 48.7621 41.863 48.9337 42.095 49.1634C42.3294 49.393 42.5117 49.6818 42.6419 50.0298C42.7721 50.3755 42.8372 50.7803 42.8372 51.2443V51.6598H38.2314V50.7223H41.4132C41.4132 50.5045 41.3658 50.3116 41.2711 50.1435C41.1764 49.9754 41.045 49.844 40.877 49.7493C40.7112 49.6522 40.5183 49.6037 40.2981 49.6037C40.0685 49.6037 39.8649 49.657 39.6873 49.7635C39.5121 49.8677 39.3748 50.0085 39.2754 50.1861C39.176 50.3613 39.1251 50.5566 39.1227 50.772V51.6634C39.1227 51.9332 39.1724 52.1664 39.2718 52.3629C39.3736 52.5594 39.5169 52.7109 39.7015 52.8175C39.8862 52.924 40.1052 52.9773 40.3585 52.9773C40.5266 52.9773 40.6805 52.9536 40.8201 52.9062C40.9598 52.8589 41.0794 52.7879 41.1788 52.6932C41.2782 52.5985 41.354 52.4825 41.4061 52.3452L42.8052 52.4375C42.7342 52.7737 42.5886 53.0672 42.3684 53.3182C42.1506 53.5668 41.8689 53.7609 41.5233 53.9006C41.18 54.0379 40.7834 54.1065 40.3336 54.1065Z" fill="black"/>
</svg>
