<svg width="64" height="64" viewBox="0 0 64 64" fill="none" xmlns="http://www.w3.org/2000/svg">
<circle cx="32" cy="32" r="32" fill="white"/>
<path d="M13.4572 25.1861V21.6364H30.1816V25.1861H23.9473V42H19.6916V25.1861H13.4572ZM45.5091 28.2188C45.3699 27.7348 45.1743 27.3073 44.9224 26.9361C44.6705 26.5582 44.3623 26.2401 43.9977 25.9815C43.6397 25.7164 43.2288 25.5142 42.7647 25.375C42.3074 25.2358 41.8002 25.1662 41.2434 25.1662C40.2027 25.1662 39.2879 25.4247 38.4991 25.9418C37.7169 26.4588 37.1071 27.2112 36.6696 28.1989C36.2321 29.1799 36.0133 30.3797 36.0133 31.7983C36.0133 33.2169 36.2288 34.4233 36.6596 35.4176C37.0905 36.4119 37.7003 37.1709 38.4892 37.6946C39.278 38.2116 40.2093 38.4702 41.2832 38.4702C42.2576 38.4702 43.0895 38.2978 43.7789 37.9531C44.475 37.6018 45.0053 37.108 45.3699 36.4716C45.7411 35.8352 45.9267 35.0829 45.9267 34.2145L46.8017 34.3438H41.5517V31.1023H50.073V33.6676C50.073 35.4574 49.6951 36.9953 48.9395 38.2812C48.1838 39.5606 47.1431 40.5483 45.8173 41.2443C44.4915 41.9337 42.9735 42.2784 41.2633 42.2784C39.3542 42.2784 37.6771 41.8575 36.2321 41.0156C34.787 40.1671 33.6601 38.964 32.8514 37.4062C32.0493 35.8419 31.6483 33.9858 31.6483 31.8381C31.6483 30.1875 31.8869 28.7159 32.3642 27.4233C32.8481 26.1241 33.5242 25.0237 34.3926 24.1222C35.2609 23.2206 36.2718 22.5346 37.4252 22.0639C38.5787 21.5933 39.8282 21.358 41.1738 21.358C42.3272 21.358 43.4011 21.527 44.3954 21.8651C45.3897 22.1965 46.2714 22.6671 47.0403 23.277C47.8159 23.8868 48.4489 24.6127 48.9395 25.4545C49.43 26.2898 49.7449 27.2112 49.8841 28.2188H45.5091Z" fill="#56ACE6"/>
</svg>
